<svg xmlns="http://www.w3.org/2000/svg" viewBox="0 0 410 404"><path fill="#FFC43D" d="M399.641 59.525 210.027 388.232c-2.483 4.284-8.712 4.28-11.189-.008L9.812 59.53c-2.746-4.73 1.371-10.546 6.792-9.67l187.598 30.707a6.537 6.537 0 0 0 2.107-.002l186.731-30.69c5.414-.891 9.536 4.886 6.798 9.616Z"/><path fill="#4E45B5" d="M292.961.006 156.549 26.501a3.268 3.268 0 0 0-2.634 3.014l-8.64 146.92a3.268 3.268 0 0 0 3.997 3.36l39.116-8.98c2.32-.533 4.435 1.507 3.936 3.838l-11.604 55.306c-.516 2.458 1.782 4.57 4.143 3.78l24.17-8.28c2.36-.81 4.657 1.32 4.14 3.779l-18.451 87.948c-.732 3.483 3.979 5.396 5.943 2.437l1.418-2.196 114.2-230.34c1.215-2.449-.88-5.237-3.55-4.691l-40.208 8.125c-2.371.479-4.435-1.75-3.759-4.071l26.267-89.84c.677-2.317-1.37-4.551-3.741-4.079Z"/></svg>
